<svg xmlns="http://www.w3.org/2000/svg" viewBox="0 0 535 287.88"><defs><style>.cls-1{fill:#231f20;}.cls-2{fill:#ef457c;}.cls-3{fill:#fff;}.cls-4{fill:#55caf5;}</style></defs><g id="Layer_2" data-name="Layer 2"><g id="Layer_1-2" data-name="Layer 1"><path class="cls-1" d="M535,189.86a13.18,13.18,0,0,0-.73-3.87l-.12-.37c0-.13-.08-.25-.13-.37l-.12-.37-.12-.37c0-.13-.08-.25-.13-.37l-.12-.37-.12-.37c0-.13-.08-.25-.13-.37l-.12-.37-.12-.37c0-.13-.08-.25-.13-.37l-.12-.37-.12-.38c0-.12-.08-.24-.13-.37l-.12-.37-.12-.37c0-.12-.08-.25-.13-.37l-.12-.37-.12-.37-.13-.37-.12-.37-.12-.37-.13-.37-.12-.37c0-.12-.08-.25-.13-.37l-.12-.37-.12-.37c0-.13-.08-.25-.13-.37l-.12-.37-.12-.37c0-.13-.08-.25-.13-.37l-.12-.37-.12-.37c0-.13-.08-.25-.13-.37l-.12-.37-.12-.37c0-.13-.08-.25-.13-.37l-.12-.37-.12-.38c0-.12-.08-.24-.13-.37l-.12-.37-.12-.37c0-.12-.08-.24-.13-.37l-.12-.37-.12-.37-.13-.37-.12-.37-.12-.37-.13-.37-.12-.37c0-.12-.08-.25-.13-.37s-.08-.25-.12-.37l-.12-.37c0-.13-.08-.25-.13-.37l-.12-.37-.12-.37c0-.13-.08-.25-.13-.37l-.12-.37-.12-.37c0-.13-.08-.25-.13-.37l-.12-.37-.12-.37-.09-.28c4-6.05,6.26-11.17,7.06-15.62a17.67,17.67,0,0,0-.65-9.06,2.47,2.47,0,0,0-.1-.29l-.12-.38-.12-.37c0-.12-.09-.24-.13-.37l-.12-.37c0-.12-.08-.24-.13-.37s-.08-.24-.12-.37l-.12-.37c0-.12-.08-.24-.13-.37s-.08-.25-.12-.37l-.12-.37c0-.12-.08-.25-.13-.37s-.08-.25-.12-.37l-.12-.37c0-.12-.08-.25-.13-.37s-.08-.25-.12-.37l-.12-.37-.13-.37-.12-.37-.12-.37c0-.13-.09-.25-.13-.37l-.12-.37-.12-.37c0-.13-.09-.25-.13-.37l-.12-.37-.12-.37c0-.13-.09-.25-.13-.38l-.12-.37-.12-.37c0-.12-.09-.24-.13-.37l-.12-.37c0-.12-.08-.24-.13-.37s-.08-.24-.12-.37l-.12-.37c0-.12-.08-.24-.13-.37s-.08-.24-.12-.37l-.12-.37c0-.12-.08-.25-.13-.37s-.08-.25-.12-.37l-.12-.37c0-.12-.08-.25-.13-.37s-.08-.25-.12-.37l-.12-.37c0-.12-.08-.25-.13-.37s-.08-.25-.12-.37l-.12-.37c0-.13-.08-.25-.13-.37l-.12-.37-.12-.37c0-.13-.09-.25-.13-.37l-.12-.37-.12-.37c0-.13-.09-.25-.13-.38l-.12-.36-.12-.38c0-.12-.09-.24-.13-.37l-.12-.37-.12-.37c0-.12-.09-.24-.13-.37l-.12-.37-.12-.37c0-.12-.09-.24-.13-.37l-.12-.37c0-.12-.08-.25-.13-.37s-.08-.25-.12-.37l-.12-.37c0-.12-.08-.25-.13-.37s-.08-.25-.12-.37l-.12-.37c0-.12-.08-.25-.13-.37s-.08-.25-.12-.37l-.12-.37c0-.12-.08-.25-.13-.37l-.12-.37-.12-.37c0-.13-.09-.25-.13-.37l-.12-.37-.12-.37c0-.13-.09-.25-.13-.37l-.09-.29a20.11,20.11,0,0,0-3.5-6.52,44.64,44.64,0,0,0-9.15-8.51c-2.84-2-3.76-2.7-4-2.91l-.11-.09A16.29,16.29,0,0,0,496,87.1c-.4,0-.81,0-1.25,0-3.76.24-7.59,1.7-11.71,4.48a94.29,94.29,0,0,0-9,6.95,86.3,86.3,0,0,0-9.81,10.3,136.91,136.91,0,0,0-9.12,12.52c-1.7,2.62-3.35,5.44-4.94,8.42a24.4,24.4,0,0,0-1.79-3.71c-.9-1.54-1.3-2.35-1.47-2.72a30,30,0,0,0-3.31-5.26c-1-1.34-1.74-2.36-2.21-3-.72-1-1.68-2.26-3-3.76-1.07-1.26-1.86-2.18-2.39-2.77s-.93-1-1.53-1.64L433,105.19a16.23,16.23,0,0,0-7.3-4.64,101.3,101.3,0,0,0,6.79-8.21c10.38-14.21,14.61-27.42,12.59-39.26a29.67,29.67,0,0,0-1.16-4.56c0-.13-.08-.25-.13-.37l-.12-.37-.12-.38c0-.12-.08-.24-.13-.37l-.12-.36-.12-.38c0-.12-.08-.24-.13-.37l-.12-.37-.12-.37c0-.12-.08-.24-.13-.37l-.12-.37-.12-.37c0-.12-.09-.24-.13-.37l-.12-.37L442,43l-.13-.37-.12-.37-.12-.37-.13-.37-.12-.37c0-.12-.08-.25-.13-.37l-.12-.37-.12-.37c0-.13-.08-.25-.13-.37l-.12-.37-.12-.37c0-.13-.08-.25-.13-.37l-.12-.37-.12-.37c0-.13-.08-.25-.13-.38l-.12-.37-.12-.37c0-.12-.08-.24-.13-.36l-.12-.38-.12-.37c0-.12-.08-.24-.13-.37l-.12-.37-.12-.37c0-.12-.09-.24-.13-.37L439,33.7l-.12-.37L438.7,33l-.12-.37-.12-.37-.13-.37-.12-.37-.12-.37-.13-.37-.12-.37c0-.13-.08-.25-.13-.37l-.12-.37-.12-.37c0-.13-.08-.25-.13-.37l-.12-.37-.12-.37c0-.13-.08-.25-.13-.37l-.12-.38-.12-.36c0-.13-.08-.25-.13-.38l-.12-.37-.12-.37c0-.12-.08-.24-.13-.37l-.12-.37-.12-.37c0-.12-.08-.24-.13-.37l-.12-.37-.12-.37c0-.12-.09-.24-.13-.37l-.12-.37-.12-.37-.13-.37-.12-.37c0-.12-.08-.25-.13-.37l-.12-.37-.12-.37c0-.12-.08-.25-.13-.37l-.12-.37-.12-.37c0-.13-.08-.25-.13-.37l-.12-.37C431.26,10.46,423.48,0,401.79,0a53.62,53.62,0,0,0-24.52,6,73.36,73.36,0,0,0-19.89,14.79A122.61,122.61,0,0,0,342,41.11a187.24,187.24,0,0,0-12,22.64C327.7,69,325.51,74.41,323.46,80a98.87,98.87,0,0,1-49.14-14.9,10.78,10.78,0,0,0-5.83-1.71A11.22,11.22,0,0,0,262,65.53c-3.26,2.24-7.22,6.75-8,15.59l0,.27A25.35,25.35,0,0,0,255.16,91c0,.13.08.25.13.37s.08.25.12.38l.12.37c0,.12.08.24.13.37l.12.37.12.37c0,.12.09.24.13.37l.12.37.12.37c0,.12.09.24.13.37l.12.37.12.37.13.37.12.37.12.37.13.37.12.37.12.37.13.37.12.37.12.37c0,.13.09.25.13.37l.12.37c0,.13.08.25.13.37s.08.25.12.37l.12.37c0,.13.08.25.13.37s.08.25.12.37l.12.37c0,.13.08.25.13.38l.12.37.12.37c0,.12.08.24.13.37l.12.37.12.37c0,.12.09.24.13.37l.12.37.12.37.13.37.12.37.12.37.13.37.12.37.12.37a.54.54,0,0,1,0,.1,70.12,70.12,0,0,0-7.28,5.63,86.07,86.07,0,0,0-9.68,10.09c-1,1.24-2,2.56-3,3.94-.16-.31-.34-.62-.53-.94-.89-1.54-1.3-2.35-1.47-2.71a30.09,30.09,0,0,0-3.3-5.27c-1-1.34-1.75-2.36-2.21-3-.73-1-1.68-2.26-2.95-3.76-1.08-1.26-1.87-2.18-2.4-2.77s-.92-1-1.53-1.64l-1.56-1.73a16.85,16.85,0,0,0-10-5.28l-.12-.35-.12-.37c0-.13-.08-.25-.13-.37l-.12-.38-.12-.37c0-.12-.08-.25-.13-.37l-.12-.37-.12-.37c0-.12-.08-.25-.13-.37l-.12-.37-.12-.37-.13-.37-.12-.37-.12-.37-.13-.37-.12-.37-.12-.37c0-.13-.09-.25-.13-.37l-.12-.37c0-.13-.08-.25-.13-.37l-.12-.37-.12-.37c0-.13-.08-.25-.13-.37l-.12-.37-.12-.37c0-.13-.08-.25-.13-.37l-.12-.37-.12-.37c0-.13-.08-.25-.13-.37s-.08-.26-.12-.37l-.12-.37c0-.13-.08-.26-.13-.38l-.12-.37-.12-.37c0-.12-.08-.25-.13-.37l-.12-.37-.12-.37c0-.12-.08-.25-.13-.37l-.12-.37-.12-.37c0-.13-.09-.25-.13-.37l-.12-.37c0-.13-.08-.25-.13-.37a10.48,10.48,0,0,0-.9-2.07,10.26,10.26,0,0,0-8.85-5.07h-.08a2,2,0,0,0-.1-.26c0-.13-.07-.25-.12-.37l-.12-.38c0-.12-.08-.24-.13-.37s-.07-.24-.12-.37l-.12-.37c0-.12-.08-.24-.13-.37l-.12-.37-.12-.37c0-.12-.08-.25-.13-.37l-.12-.37-.12-.37c0-.12-.08-.25-.13-.37l-.12-.37-.12-.37c0-.12-.08-.25-.13-.37l-.12-.37-.12-.37c0-.12-.08-.25-.13-.37l-.12-.37-.12-.37a13.72,13.72,0,0,0-.52-1.34c-1.79-3.92-5.25-6.78-10.6-8.74a46.78,46.78,0,0,0-16.12-3H154.43l-1.78,7.75c-.34,1.45-1.07,4.46-2.31,9.48-.31,1.26-.6,2.44-.88,3.53a16.65,16.65,0,0,0-10.18,4.51c-.68-.19-1.35-.35-2-.5l0,0-.12-.37-.12-.37c-.05-.12-.08-.25-.13-.37l-.12-.37-.12-.37c0-.12-.08-.25-.13-.37l-.12-.37-.12-.37c0-.13-.08-.25-.13-.37L136,77.2c0-.13-.08-.25-.13-.37s-.07-.25-.12-.37l-.12-.37c0-.13-.08-.25-.13-.37s-.07-.25-.12-.37l-.12-.38c0-.12-.08-.24-.13-.37s-.07-.24-.12-.37l-.12-.37c0-.12-.08-.24-.13-.37s-.07-.24-.12-.37l-.12-.37c0-.12-.08-.24-.13-.37s-.07-.24-.12-.37l-.12-.37c0-.12-.08-.25-.13-.37s-.07-.25-.12-.37l-.12-.37c0-.12-.08-.25-.13-.37l-.12-.37-.12-.37c0-.12-.08-.25-.13-.37l-.12-.37-.12-.37c-.05-.13-.08-.25-.13-.37l-.12-.37-.12-.37c-.05-.13-.08-.25-.13-.37l-.12-.37c0-.13-.08-.25-.13-.37s-.07-.25-.12-.37l-.12-.38c0-.12-.08-.24-.13-.37s-.07-.24-.12-.37l-.12-.37c0-.12-.08-.24-.13-.37s-.07-.24-.12-.37l-.12-.37c0-.12-.08-.24-.13-.37s-.07-.24-.12-.37L131,62c0-.12-.08-.25-.13-.37s-.07-.25-.12-.37l-.12-.37c-.05-.12-.08-.25-.13-.37l-.12-.37-.12-.37c-.05-.12-.08-.25-.13-.37s-.1-.31-.16-.47c-1.36-4-4.75-7.75-11.29-10.12A45.82,45.82,0,0,0,103.08,46h-.6l-7,.09h-8l-1.75,7.8q-1.82,8-3.9,15.42v0c0-.12-.08-.24-.13-.37l-.12-.37-.12-.37c0-.12-.08-.24-.13-.37l-.12-.37L81,67.06c0-.12-.08-.25-.13-.37l-.12-.37c0-.12-.08-.25-.13-.37a2.65,2.65,0,0,0-.12-.37l-.12-.37c0-.12-.08-.25-.13-.37l-.12-.37-.12-.37c0-.13-.08-.25-.13-.37l-.12-.37L79.68,63c0-.13-.08-.25-.13-.37l-.12-.37-.12-.37c0-.13-.08-.25-.13-.37l-.12-.38-.12-.37c0-.12-.08-.24-.13-.37L78.69,60l-.12-.37c0-.12-.08-.24-.13-.37h0c-1-3.6-4-7.65-11.26-10.4a65.34,65.34,0,0,0-15.29-3.72A62.76,62.76,0,0,0,45,44.6c-7.77,0-10.15,5.44-10.7,7.1l-.16.48-.1.49c-2.83,12.81-13.2,51.77-30.84,115.77l-.06.21,0,.21a109.68,109.68,0,0,0-3,19.47A28.67,28.67,0,0,0,1.2,198.2c0,.13.09.25.13.37l.12.37.12.37c0,.13.09.25.13.37l.12.37c0,.13.09.25.12.37s.09.25.13.37l.12.37c0,.13.09.25.13.37s.08.25.12.37l.12.37c0,.13.09.25.13.37s.08.25.12.37l.12.38c0,.12.09.24.13.37s.08.24.12.37l.12.37c0,.12.09.24.13.37s.08.24.12.37l.12.37c0,.12.09.24.13.37s.08.24.12.37l.12.37c0,.12.09.24.13.37s.08.24.12.37l.12.37c0,.13.09.25.13.37l.12.37.12.37c0,.13.09.25.13.37l.12.37c0,.13.09.25.12.37s.09.25.13.37l.12.37c0,.13.09.25.13.37s.08.25.12.37l.12.37c0,.13.09.25.13.37s.08.25.12.37l.12.37c0,.13.09.25.13.38s.08.24.12.37l.12.37c0,.12.09.24.13.37s.08.24.12.37l.12.37c0,.12.09.24.13.37s.08.24.12.37l.12.37c0,.12.09.24.13.37s.08.24.12.37l.12.37c0,.13.09.24.13.37s.08.25.12.37l.12.37c0,.13.09.25.13.37l.12.37c0,.13.09.25.12.37s.09.25.13.37l.12.37c0,.13.09.25.12.37s.09.25.13.37l.12.37c0,.13.09.25.13.37s.08.25.12.37l.12.37c0,.13.09.25.13.37s.08.25.12.37l.12.38c0,.12.09.24.13.37s.08.24.12.37l.12.37c0,.12.09.24.13.37s.08.24.12.37l.12.37c0,.12.09.24.13.37s.08.24.12.37l.12.37c0,.12.09.24.13.37s.08.24.12.37a19.42,19.42,0,0,0,4.07,7.45,22.12,22.12,0,0,0,11.91,7.18,27.86,27.86,0,0,0,6,.61,40.3,40.3,0,0,0,6.77-.61l8.3-1.43v-8.36c0-.73.53-5,5.58-24.45,0,.05,0,.09.05.13l.12.37c0,.13.08.25.13.37l.12.37.12.37c0,.13.09.25.13.38l.12.36.12.38c0,.12.09.24.13.37l.12.37.12.36c0,.13.09.25.13.38l.12.37.12.37c0,.12.09.24.13.37l.12.37.12.37c0,.12.09.24.13.37L56,215l.12.37c.05.12.09.25.13.37l.12.37.12.37c0,.13.09.25.13.37l.12.37c0,.12.08.25.13.37L57,218l.12.37c0,.13.08.25.13.37l.12.37.12.38.12.36c0,.13.09.25.13.38C62.2,233.93,68,245.64,74.86,255.07a79.7,79.7,0,0,0,31.24,25.58c10.39,4.8,22.55,7.23,36.12,7.23h0c2.8,0,5.7-.1,8.64-.3,16.39-1.14,35.27-5.58,56.07-13.17,4.48-1.62,12.31-6.24,14.39-19a36.45,36.45,0,0,0,.18-12c.33,0,.67,0,1,0,6.29,0,12.78-3.77,20.87-12.2l.26.36c6.72,9.08,14.78,11,20.37,11A23.12,23.12,0,0,0,280,236a15.91,15.91,0,0,0,7.58,6.46,14.42,14.42,0,0,0,5.46,1.05c5.78,0,11.73-3.19,18.94-10.25a20.87,20.87,0,0,0,9.82,7.36,26.1,26.1,0,0,0,8.88,1.47h0c5.09,0,10.65-1.22,17-3.75,9.08-3.6,18.09-9.79,26.75-18.39l.74-.75c0,.11.07.23.11.34l.12.37.12.37c.05.12.09.25.13.37a39.2,39.2,0,0,0,5.66,11c6.71,9.08,14.78,11,20.36,11a23.09,23.09,0,0,0,16-6.65,16,16,0,0,0,7.58,6.46,14.43,14.43,0,0,0,5.47,1.05c6.62,0,13.45-4.18,22.14-13.55l.53-.56c6.63,11.33,16.49,13.25,22.42,13.25,9.66,0,19.73-4.08,30.8-12.47A90.22,90.22,0,0,0,531,202.68c2.75-4.78,4-8.71,4-12.38v-.44Z"/><path class="cls-2" d="M204,217.06a328.7,328.7,0,0,1-31.14,15.21,141.82,141.82,0,0,1-26.19,8.19q-12.51,2.52-22.23.27a46.55,46.55,0,0,1-18.18-8.82q-8.46-6.57-15-18.45a149.58,149.58,0,0,1-11.79-29.34q-6.12-20.7-22.14-24.66,42.3-13.32,67.14-88.92,1.26-4-5.22-6.3A35.43,35.43,0,0,0,106.63,62l-7.2.09Q90.79,100.42,76,126T44.89,156q3.42-12.42,6.84-23.67t6-19.62q2.61-8.37,5-15.3t4.14-11.79q1.8-4.86,3-8.1t2.07-5.4a19.78,19.78,0,0,0,.9-2.34q1.08-3.24-5.13-5.58a55.3,55.3,0,0,0-13-3.15q-6.75-.81-6.93-.27-4.32,19.62-31,116.28A101.53,101.53,0,0,0,14,194.74q-.27,6.66,2.61,9.9a12.24,12.24,0,0,0,6.57,4.05,23.47,23.47,0,0,0,8.91-.09q0-4.32,6.12-27.72,4-15.12,4.68-17.46a16,16,0,0,1,9.63,7q3.51,5.4,6.93,17.1,6.66,22.86,17.46,37.62a69.49,69.49,0,0,0,27.36,22.41q16.56,7.65,39.87,6T197.53,241q6.48-2.34,7.92-11.16,1.26-7.74-.9-12.24Q204.19,216.88,204,217.06Z"/><path class="cls-2" d="M380.68,140.11q-.63-10.53-5.31-17.55t-11.88-7q-7,0-16,15.3l8.82-27.36a3.16,3.16,0,0,1,.36-.9A176.26,176.26,0,0,0,396.43,83.5a89.33,89.33,0,0,0,22-21.06q13.14-18,10.8-31.68Q426.67,16,405.79,16a43.54,43.54,0,0,0-20,4.95,63.25,63.25,0,0,0-17.19,12.78,112.15,112.15,0,0,0-14.13,18.63,176.45,176.45,0,0,0-11.34,21.42q-4.68,10.62-8.64,22.32-34.38.54-61.56-16.56a1,1,0,0,0-1.26.18q-3.24,2.16-3.78,8.28-.72,11.7,14,17.46,19.8,8.1,48.6,3.42-16,54.54-18.72,65.52c-.56,2.79-1,5.38-1.26,7.79q-5.62,9.24-9.54,12.37-3.6,2.88-4.32,2.7-.9-.18.9-11.16,1.08-6.66,2.52-13t2.7-10.89q1.26-4.5,2.34-7.83t1.8-5.4a20.81,20.81,0,0,0,.72-2.25,3.42,3.42,0,0,0,.27-2.88,22.51,22.51,0,0,1-.54-3.24,8.76,8.76,0,0,0-1.35-3.42q-1.26-2.16-1.89-3.51a22.23,22.23,0,0,0-2.25-3.51q-1.62-2.16-2.43-3.33c-.54-.78-1.33-1.77-2.34-3s-1.78-2.07-2.25-2.61-1.11-1.2-1.89-2a5.59,5.59,0,0,1-1.17-1.35,7,7,0,0,0-4.5-2.16,16,16,0,0,0-6.66.81,40,40,0,0,0-8,3.6,54.42,54.42,0,0,0-8.73,6.39,75.59,75.59,0,0,0-8.55,8.91,67.88,67.88,0,0,0-7.56,11.7A88.62,88.62,0,0,0,242,161.26a64.92,64.92,0,0,0-2.51,21.8q-5.28,8.52-9,11.5t-4.32,2.7q-.9-.18.9-11.16,1.08-6.66,2.52-13t2.7-10.89q1.26-4.5,2.34-7.83t1.8-5.4a20.81,20.81,0,0,0,.72-2.25,3.38,3.38,0,0,0,.27-2.88,22.51,22.51,0,0,1-.54-3.24,8.76,8.76,0,0,0-1.35-3.42q-1.26-2.16-1.89-3.51a21.51,21.51,0,0,0-2.25-3.51q-1.62-2.16-2.43-3.33t-2.34-3q-1.53-1.8-2.25-2.61t-1.89-2a5.59,5.59,0,0,1-1.17-1.35,7,7,0,0,0-4.5-2.16,16,16,0,0,0-6.66.81,40,40,0,0,0-8,3.6,54.42,54.42,0,0,0-8.73,6.39,75.59,75.59,0,0,0-8.55,8.91,67.88,67.88,0,0,0-7.56,11.7,88.62,88.62,0,0,0-5.85,14.13A63.81,63.81,0,0,0,169,184.18c-3.21,5.32-5.76,8.73-7.65,10.2q-3.6,2.88-4.5,2.88-1.62-.18.18-11.34,3.78-22.32,16.38-60.84,4-11.88,7.92-21.78,15.66-1.62,22.14-9.18.72-1.26.18-1.26h-18q2.52-5.94,5.76-12.24,1.44-3.78-4.95-6.12a36.71,36.71,0,0,0-12.69-2.34h-7.38q-.54,2.34-2.34,9.63t-2.88,11.07h-6.48a6.68,6.68,0,0,0-6,3.87,7.87,7.87,0,0,0-.94,4.12A15.38,15.38,0,0,0,141,97.18a21.11,21.11,0,0,0-12.78,0q-6.12,2-7.92,6.48a8.7,8.7,0,0,0,1.44,8.91,18.82,18.82,0,0,0,8.46,6.21,19.81,19.81,0,0,0,12.51.27q6.39-1.89,8.19-6.75a9.47,9.47,0,0,0-.72-8.39c2.18.07,4.87.11,8.1.11q-4.68,17.28-11.7,41t-8.1,28.35c-.43,1.86-.77,3.65-1.05,5.4q-10.71,19.64-16,26.46-2.34,2.88-3.24,2.88-1.62-.18.54-13.14a97.1,97.1,0,0,1,2.25-10.62q1.53-5.76,3.15-11.25t3.51-10.8q1.89-5.31,3.6-9.9t3.06-7.92q1.35-3.33,2.25-5.67l1.08-2.52q.72-2.52-3.87-4.68a40.41,40.41,0,0,0-10.08-3.15,29,29,0,0,0-8.19-.63l-.9,3.24q-.54,1.62-5.94,18t-7.92,24.84q-4,12.78-3.42,22.14t3.06,14.49q2.52,5.13,6.12,6.57,3.42,1.44,8-.9t8.73-8.28q4.5-6.23,13.51-21.95a39.4,39.4,0,0,0,.8,9.89q2.07,9.36,7.29,11.52,6.48,2.7,16.56-8.28a81.22,81.22,0,0,0,8.23-10.75,31.89,31.89,0,0,0,5.54,13.36q5.13,6.93,12.33,6.93,7,0,12.6-7.92,4.68-6.48,11.16-25.74h.18a62.31,62.31,0,0,0-2.07,22q1,10.44,5.49,12.24,5.22,2.16,16.56-10.08a82.86,82.86,0,0,0,8.68-11.29,32.18,32.18,0,0,0,5.63,13.9q5.13,6.93,12.33,6.93,7,0,12.6-7.92,4.68-6.48,11.16-25.74H282a62.31,62.31,0,0,0-2.07,22q1,10.44,5.49,12.24,5.22,2.16,16.56-10.08a80.16,80.16,0,0,0,8.2-10.58,28.94,28.94,0,0,0,1.07,9q2.43,7.74,8,9.72,7,2.52,18.81-2.16t23.4-16.2a64.22,64.22,0,0,0,16.29-25.92A66.7,66.7,0,0,0,380.68,140.11ZM361.15,88.36q6.12-18.54,8.91-26.37T378,42.37q5.13-11.79,9.81-16.38t9.9-4.59q11.52,0,15.3,10.08t-2.07,24q-5.85,14-19.53,23.49-13.32,9.36-31.68,13.68Q360.25,91.24,361.15,88.36ZM220.21,128q-.36,1.44-.81,2.79l-1.26,3.78q-.81,2.43-1.35,4.23L209.05,165q-6.12,20.34-8.82,26.46t-7,6.12q-3.24,0-4.14-4.77t.36-12.87a154.73,154.73,0,0,1,4.32-18.72,90.69,90.69,0,0,1,12.51-27.72q8-11.52,13.59-8.82.54.18.63,1A6.8,6.8,0,0,1,220.21,128Zm70.56,0c-.24,1-.52,1.89-.81,2.79l-1.26,3.78q-.81,2.43-1.35,4.23L279.61,165q-6.12,20.34-8.82,26.46t-7,6.12q-3.24,0-4.14-4.77T260,180a154.73,154.73,0,0,1,4.32-18.72,90.69,90.69,0,0,1,12.51-27.72q8-11.52,13.59-8.82.54.18.63,1A6.8,6.8,0,0,1,290.77,128Zm70.56,9a102.17,102.17,0,0,1-2,11.43q-1.44,6.39-4,14.49Q344,201,332.71,201a2.53,2.53,0,0,1-2.7-2.52q-.36-2.34,2.52-17.1.72-3.24,4.14-15.3a221.72,221.72,0,0,1,11.43-28q5.85-11.61,9.63-11.61,2.34,0,3.24,2.7A19.19,19.19,0,0,1,361.33,137Z"/><path class="cls-2" d="M514.68,169.9A62.28,62.28,0,0,1,495.6,192q-11.88,8.46-18.36,7.2-8.82-1.26-4-25.38a175.88,175.88,0,0,0,29.34-28q13.68-16.29,15.12-24.57a8.36,8.36,0,0,0-2-7,34.55,34.55,0,0,0-7.11-6.57q-4.41-3.15-4.59-3.33a6.57,6.57,0,0,0-4.68-1.26,14.3,14.3,0,0,0-6.75,2.79,83.19,83.19,0,0,0-8,6.21,75.35,75.35,0,0,0-8.64,9.09,127.88,127.88,0,0,0-8.46,11.61,115.13,115.13,0,0,0-7.47,13.59,120.77,120.77,0,0,0-5.85,14.85,65.43,65.43,0,0,0-2.95,15.81q-7.61,13.58-12.53,17.49-3.6,2.88-4.32,2.7-.9-.18.9-11.16,1.08-6.66,2.52-13t2.7-10.89q1.26-4.5,2.34-7.83t1.8-5.4a20.81,20.81,0,0,0,.72-2.25,3.38,3.38,0,0,0,.27-2.88,22.51,22.51,0,0,1-.54-3.24,8.76,8.76,0,0,0-1.35-3.42q-1.26-2.16-1.89-3.51a21.51,21.51,0,0,0-2.25-3.51q-1.62-2.16-2.43-3.33t-2.34-3q-1.53-1.8-2.25-2.61t-1.89-2a5.59,5.59,0,0,1-1.17-1.35,7,7,0,0,0-4.5-2.16,16,16,0,0,0-6.66.81,40,40,0,0,0-8,3.6,54.42,54.42,0,0,0-8.73,6.39,75.59,75.59,0,0,0-8.55,8.91,67.88,67.88,0,0,0-7.56,11.7,88.62,88.62,0,0,0-5.85,14.13,64.2,64.2,0,0,0-2.43,23q1,10.53,6.12,17.46t12.33,6.93q7,0,12.6-7.92,4.68-6.48,11.16-25.74h.18a62.31,62.31,0,0,0-2.07,22q1,10.44,5.49,12.24,5.22,2.16,16.56-10.08a96.74,96.74,0,0,0,11.66-16,45.44,45.44,0,0,0,2,10.85Q458,208.6,469.86,208.6q11,0,24.75-10.44a79.87,79.87,0,0,0,21.69-24.48Q519,169,519,166.3,518.82,162.16,514.68,169.9Zm-38.16-8.64q2.34-8.46,5.58-17.37t6.84-17.1A57.73,57.73,0,0,1,496.23,114q3.69-4.59,6.39-3.33,2.7,1.44-.27,11.34t-10.71,23.22a104.64,104.64,0,0,1-16.92,22.32A56.76,56.76,0,0,1,476.52,161.26ZM428.46,128q-.36,1.44-.81,2.79l-1.26,3.78q-.81,2.43-1.35,4.23L417.3,165q-6.12,20.34-8.82,26.46t-7,6.12q-3.24,0-4.14-4.77t.36-12.87A154.73,154.73,0,0,1,402,161.26a90.69,90.69,0,0,1,12.51-27.72q8-11.52,13.59-8.82.54.18.63,1A6.8,6.8,0,0,1,428.46,128Z"/><path class="cls-3" d="M132.22,249.38c-12.33,0-23.29-2.17-32.56-6.45a71.28,71.28,0,0,1-27.94-22.88C64.45,210.1,58.5,197.29,54,182c-2.23-7.63-4.5-13.25-6.75-16.7a14.39,14.39,0,0,0-7.35-5.95c-.73,2.61-2.16,8-4.25,15.95-5,19.18-6.07,25.46-6.07,27.34v1.26l-1.24.22a31.61,31.61,0,0,1-5.33.49,20,20,0,0,1-4.16-.41,13.75,13.75,0,0,1-7.37-4.52c-2.18-2.45-3.18-6.14-3-11a104.31,104.31,0,0,1,2.83-17.92C29,106.55,39.45,67.46,42.31,54.5v-.08l0-.07c.41-1.25,1.84-1.25,2.62-1.25a58,58,0,0,1,5.91.5,56.92,56.92,0,0,1,13.31,3.24c6.09,2.29,6.7,5.2,6.07,7.3a18.63,18.63,0,0,1-1,2.6c-.59,1.39-1.27,3.18-2,5.33s-1.77,4.87-3,8.11-2.58,7.17-4.13,11.75-3.22,9.77-4.94,15.27-3.76,12.17-6,19.61c-2,6.67-4.08,13.7-6.08,20.93,9.56-3.7,18.84-13.27,27.64-28.51C80.45,102.4,88.27,81,94,55.75l.26-1.17h1.2l7.18-.09h.47a37.23,37.23,0,0,1,12.66,2.34c6.48,2.34,6.91,5.73,6.14,8.16-15.83,48.18-37.32,77.89-63.95,88.42,8.93,3.75,15.3,11.89,19,24.28a148.66,148.66,0,0,0,11.66,29c4.26,7.71,9.19,13.76,14.64,18a45.41,45.41,0,0,0,17.6,8.54,41.93,41.93,0,0,0,9.45,1,62.29,62.29,0,0,0,12.15-1.3,140.9,140.9,0,0,0,25.91-8.11,326,326,0,0,0,30.8-15l.28-.29.71,0a2.13,2.13,0,0,1,1.8,1.41c1.58,3.28,1.93,7.7,1,13.15-1.05,6.43-4,10.58-8.89,12.33C174,243.74,155.87,248,140.27,249.1c-2.74.19-5.45.28-8,.28Z"/><path class="cls-1" d="M45,54.6a57.27,57.27,0,0,1,5.73.49,55.3,55.3,0,0,1,13,3.15q6.21,2.34,5.13,5.58a19.78,19.78,0,0,1-.9,2.34q-.9,2.16-2.07,5.4t-3,8.1q-1.8,4.86-4.14,11.79t-5,15.3q-2.61,8.37-6,19.62T40.89,150Q57.27,145.54,72,120t23.4-63.9l7.2-.09h.45a35.71,35.71,0,0,1,12.15,2.25q6.48,2.34,5.22,6.3-24.84,75.6-67.14,88.92,16,4,22.14,24.66a149.58,149.58,0,0,0,11.79,29.34q6.57,11.88,15,18.45a46.55,46.55,0,0,0,18.18,8.82,43.21,43.21,0,0,0,9.79,1.06,63,63,0,0,0,12.44-1.33,141.82,141.82,0,0,0,26.19-8.19A328.7,328.7,0,0,0,200,211.06s.05,0,.08,0,.27.2.46.58q2.16,4.5.9,12.24Q200,232.66,193.53,235q-30.06,11-53.37,12.6-4.07.28-7.94.28-18.25,0-31.93-6.31a69.49,69.49,0,0,1-27.36-22.41q-10.8-14.76-17.46-37.62-3.42-11.7-6.93-17.1a16,16,0,0,0-9.63-7q-.72,2.34-4.68,17.46-6.12,23.4-6.12,27.72a29.51,29.51,0,0,1-5.07.47,17.66,17.66,0,0,1-3.84-.38,12.24,12.24,0,0,1-6.57-4.05q-2.88-3.24-2.61-9.9a101.53,101.53,0,0,1,2.79-17.64q26.64-96.66,31-116.28c0-.14.45-.22,1.2-.22m0-3c-.82,0-3.3,0-4,2.29l-.05.14,0,.15C38,67.11,27.59,106.18,9.92,170.3l0,.07v.06A105.18,105.18,0,0,0,7,188.62c-.21,5.22.92,9.26,3.37,12a15.21,15.21,0,0,0,8.17,5,21,21,0,0,0,4.48.45,33.43,33.43,0,0,0,5.58-.51l2.49-.43V202.6c0-1.47.78-6.93,6-27,1.93-7.37,3.09-11.73,3.79-14.27a13.25,13.25,0,0,1,5.11,4.7c2.16,3.34,4.37,8.83,6.56,16.31,4.51,15.5,10.54,28.47,17.92,38.55A72.78,72.78,0,0,0,99,244.29c9.47,4.38,20.64,6.59,33.19,6.59,2.64,0,5.38-.09,8.15-.29,15.74-1.09,34-5.39,54.19-12.77,5.39-1.95,8.71-6.49,9.85-13.49,1-5.85.57-10.43-1.15-14a3.5,3.5,0,0,0-3.17-2.28,3.07,3.07,0,0,0-1.67.49,327.81,327.81,0,0,1-30.7,15,140.14,140.14,0,0,1-25.63,8,60.77,60.77,0,0,1-11.85,1.27,40.65,40.65,0,0,1-9.11-1,43.88,43.88,0,0,1-17-8.27c-5.29-4.11-10.08-10-14.24-17.53a146.83,146.83,0,0,1-11.54-28.75c-3.38-11.42-9-19.38-16.78-23.76,11.76-5.36,22.52-14.45,32.09-27.12,11.34-15,21.32-35.51,29.66-60.9.81-2.54,1-7.17-7-10.06A38.91,38.91,0,0,0,103.08,53h-.49c-3.72.06-6.4.09-7.16.09H93l-.52,2.34c-5.67,25.14-13.43,46.36-23.08,63.06-7.73,13.4-15.8,22.3-24,26.57,1.72-6.13,3.47-12.1,5.2-17.81,2.26-7.43,4.29-14,6-19.6S60,97,61.55,92.41s2.93-8.51,4.12-11.71,2.19-6,3-8.12,1.45-3.89,2-5.26a22.15,22.15,0,0,0,1-2.78c.67-2.28.5-6.28-7-9.11a58.9,58.9,0,0,0-13.66-3.32A58.28,58.28,0,0,0,45,51.6Z"/><path class="cls-3" d="M105.22,213.11a8.64,8.64,0,0,1-3.35-.67c-2.72-1.09-5.05-3.54-6.89-7.29-1.76-3.58-2.84-8.65-3.21-15.06s.81-14,3.49-22.67c1.66-5.6,4.33-14,7.92-24.87l5.95-18,1.14-4.13,1-.13a14.52,14.52,0,0,1,1.83-.1,40.15,40.15,0,0,1,6.83.74,42.84,42.84,0,0,1,10.45,3.27c3.81,1.8,5.38,4,4.67,6.45l0,.09-1.12,2.61c-.58,1.52-1.34,3.42-2.24,5.64s-1.93,4.89-3,7.88-2.27,6.17-3.6,9.88c-1.24,3.5-2.41,7.11-3.48,10.73s-2.15,7.46-3.14,11.21a97.48,97.48,0,0,0-2.22,10.45A70.29,70.29,0,0,0,115,199.7c.33-.35.75-.82,1.28-1.47,3.44-4.4,8.75-13.16,15.77-26,.29-1.82.63-3.54,1-5.24.73-3.18,3.39-12.48,8.12-28.44,4.38-14.77,8.14-27.88,11.18-39l-3.79,0a11.08,11.08,0,0,1-.22,7.33c-1.37,3.71-4.46,6.29-9.17,7.69a22.6,22.6,0,0,1-6.34.94,21.11,21.11,0,0,1-7.1-1.24,20.29,20.29,0,0,1-9.15-6.71,10.13,10.13,0,0,1-1.65-10.36c1.37-3.43,4.35-5.91,8.86-7.37a21.94,21.94,0,0,1,6.71-1.06,24.4,24.4,0,0,1,7,1A17.48,17.48,0,0,1,142.55,92a10.34,10.34,0,0,1,.77-2,8.21,8.21,0,0,1,7.3-4.69H156c.67-2.42,1.53-5.75,2.56-9.93,1.25-5.06,2-8.12,2.34-9.61l.27-1.16h8.57A38.47,38.47,0,0,1,183,67.09c3.1,1.14,5,2.54,5.79,4.29a4.74,4.74,0,0,1,.05,3.77l0,.08,0,.08c-1.76,3.42-3.37,6.8-4.81,10h15.72a1.71,1.71,0,0,1,1.5.84,2.73,2.73,0,0,1-.38,2.66l-.07.13-.09.11c-4.43,5.16-11.9,8.39-22.22,9.59-2.52,6.34-5.06,13.35-7.56,20.86C162.5,145,157,165.43,154.51,180.17a48.42,48.42,0,0,0-.92,9.12,34.44,34.44,0,0,0,2.82-2.08c1.7-1.32,4.07-4.48,7.05-9.39a66.07,66.07,0,0,1,2.52-23,89.8,89.8,0,0,1,6-14.42,69.12,69.12,0,0,1,7.73-12,77.82,77.82,0,0,1,8.72-9.09,56.31,56.31,0,0,1,9-6.56,41.62,41.62,0,0,1,8.31-3.73,19.48,19.48,0,0,1,5.7-1,13.61,13.61,0,0,1,1.59.09,8.48,8.48,0,0,1,5.43,2.65l.39.42v.11c.13.15.36.39.73.76.83.83,1.46,1.5,1.95,2s1.24,1.43,2.27,2.64,1.87,2.27,2.43,3.09,1.31,1.83,2.4,3.28A23.8,23.8,0,0,1,231,127c.39.85,1,2,1.82,3.39a10,10,0,0,1,1.55,4.07,22.24,22.24,0,0,0,.51,3,5.07,5.07,0,0,1-.33,3.82c-.1.36-.3,1-.71,2.13q-.7,2.07-1.79,5.37c-.72,2.24-1.5,4.86-2.32,7.77S228,163.17,227,167.38s-1.78,8.54-2.5,13c-.78,4.73-1.06,7.29-1.15,8.68.51-.36,1.21-.88,2.15-1.63,2.28-1.81,5.12-5.42,8.42-10.72a67.17,67.17,0,0,1,2.59-21.81,89.8,89.8,0,0,1,6-14.42,69.12,69.12,0,0,1,7.73-12,77,77,0,0,1,8.72-9.09,56.31,56.31,0,0,1,9-6.56,41.62,41.62,0,0,1,8.31-3.73,19.48,19.48,0,0,1,5.7-1,13.61,13.61,0,0,1,1.59.09,8.48,8.48,0,0,1,5.43,2.65l.39.42v.11c.13.15.36.39.73.76.83.83,1.46,1.5,1.95,2s1.24,1.43,2.27,2.64,1.87,2.27,2.43,3.09,1.31,1.83,2.4,3.28a23.8,23.8,0,0,1,2.41,3.77c.39.85,1,2,1.82,3.39a10,10,0,0,1,1.55,4.07,22.24,22.24,0,0,0,.51,3,5.07,5.07,0,0,1-.33,3.82c-.1.36-.3,1-.71,2.13q-.7,2.07-1.79,5.37c-.72,2.24-1.5,4.86-2.32,7.77s-1.73,6.61-2.68,10.82-1.79,8.54-2.5,13c-.78,4.73-1.06,7.29-1.15,8.68.51-.36,1.21-.88,2.15-1.63,2.43-1.93,5.46-5.86,9-11.7.29-2.37.71-4.92,1.24-7.58,1.78-7.26,7.86-28.56,18.08-63.39a123.68,123.68,0,0,1-17.78,1.37c-10.92,0-20.77-1.76-29.28-5.24-10.45-4.08-15.49-10.45-15-18.94.4-4.58,1.9-7.74,4.45-9.44a2.74,2.74,0,0,1,1.63-.57,2.32,2.32,0,0,1,1.29.39C287,83.12,306.72,88.62,328.41,88.62h1c2.55-7.44,5.35-14.65,8.34-21.43a179.58,179.58,0,0,1,11.44-21.61,114.5,114.5,0,0,1,14.32-18.88,65.21,65.21,0,0,1,17.6-13.08A45.23,45.23,0,0,1,401.79,8.5c14.69,0,23.06,5.39,24.88,16C428.29,34,424.56,45,415.6,57.32a91.26,91.26,0,0,1-22.33,21.42,179.23,179.23,0,0,1-39.5,19.05l-5.68,17.6c4-4.93,7.8-7.35,11.4-7.35,5.31,0,9.72,2.59,13.13,7.69,3.25,4.88,5.12,11,5.55,18.29a68.62,68.62,0,0,1-3,23.28,66.11,66.11,0,0,1-16.68,26.57c-7.84,7.78-15.88,13.34-23.9,16.52a38.58,38.58,0,0,1-13.86,3.15h0a17.66,17.66,0,0,1-6-1c-4.16-1.47-7.17-5.07-8.93-10.68a24.49,24.49,0,0,1-1-4.89,70,70,0,0,1-5.8,7.1c-6.77,7.3-12,10.86-15.94,10.86a6,6,0,0,1-2.28-.43c-3.58-1.43-5.68-5.85-6.41-13.49a57.49,57.49,0,0,1-.18-8,63.42,63.42,0,0,1-6.38,12.53c-4,5.66-8.64,8.54-13.81,8.54s-9.84-2.54-13.54-7.54a32.08,32.08,0,0,1-5.15-11.05,74.09,74.09,0,0,1-6.87,8.59c-6.77,7.3-12,10.86-15.94,10.86a6,6,0,0,1-2.28-.43c-3.58-1.43-5.68-5.85-6.41-13.49a59.07,59.07,0,0,1-.18-8,63.42,63.42,0,0,1-6.38,12.53c-4,5.66-8.64,8.54-13.81,8.54s-9.84-2.54-13.54-7.54a31.79,31.79,0,0,1-5-10.58,71.85,71.85,0,0,1-6.45,8.11c-5.73,6.24-10.63,9.28-14.95,9.28a8.48,8.48,0,0,1-3.28-.64c-3.94-1.64-6.69-5.87-8.18-12.59a37.21,37.21,0,0,1-.71-4.82c-4.7,8.06-8.37,13.92-10.92,17.44-2.87,4.12-6,7.07-9.26,8.74A13.17,13.17,0,0,1,105.22,213.11ZM353.73,122c-.67,0-3.25.78-8.29,10.78a222.08,222.08,0,0,0-11.35,27.8c-2.25,7.92-3.63,13-4.1,15.14-2.45,12.59-2.62,15.78-2.5,16.55.17,1.16.61,1.25,1.22,1.25,4.66,0,12.13-6.43,21.24-37.09,1.66-5.35,3-10.18,3.93-14.39a102,102,0,0,0,2-11.26,18.22,18.22,0,0,0-.29-7.11C355.05,122.22,354.38,122,353.73,122Zm-69.53-2.31c-1.87,0-5.16,1.5-10.15,8.69a89.67,89.67,0,0,0-12.3,27.26,153.18,153.18,0,0,0-4.28,18.55c-.81,5.21-.94,9.37-.37,12.36.67,3.55,2.12,3.55,2.67,3.55,2.25,0,4.09-1.71,5.65-5.23,1.76-4,4.71-12.84,8.75-26.28l7.74-26.27c.36-1.22.82-2.65,1.36-4.28l1.26-3.79c.29-.86.55-1.77.78-2.68a5.94,5.94,0,0,0,.24-1.61A3.5,3.5,0,0,0,284.2,119.71Zm-70.56,0c-1.87,0-5.16,1.5-10.15,8.69a89.67,89.67,0,0,0-12.3,27.26,153.18,153.18,0,0,0-4.28,18.55c-.81,5.21-.94,9.37-.37,12.36.67,3.55,2.12,3.55,2.67,3.55,2.25,0,4.09-1.71,5.65-5.23,1.76-4,4.71-12.84,8.75-26.28l7.74-26.27c.37-1.24.83-2.68,1.36-4.28l1.26-3.79c.29-.86.55-1.77.78-2.68A5.94,5.94,0,0,0,215,120,3.5,3.5,0,0,0,213.64,119.71ZM393.69,16.9c-3.1,0-6,1.36-8.85,4.16s-6.16,8.26-9.49,15.91c-3.39,7.8-6.05,14.37-7.88,19.52s-4.83,14-8.9,26.34c-.19.63-.38,1.21-.55,1.73a88.05,88.05,0,0,0,28.51-12.79c8.84-6.17,15.23-13.85,19-22.84s4.41-16.61,2-22.92C405.29,19.88,400.74,16.9,393.69,16.9Z"/><path class="cls-1" d="M401.79,10q20.88,0,23.4,14.76,2.34,13.68-10.8,31.68a89.33,89.33,0,0,1-22,21.06,176.26,176.26,0,0,1-39.78,19.08,3.16,3.16,0,0,0-.36.9l-8.82,27.36q9-15.3,16-15.3,7.2,0,11.88,7t5.31,17.55a66.7,66.7,0,0,1-3,22.77,64.22,64.22,0,0,1-16.29,25.92Q345.81,194.32,334,199a37,37,0,0,1-13.31,3,16.15,16.15,0,0,1-5.5-.88q-5.58-2-8-9.72a28.94,28.94,0,0,1-1.07-9,80.16,80.16,0,0,1-8.2,10.58q-9.65,10.41-14.86,10.4a4.33,4.33,0,0,1-1.7-.32q-4.5-1.8-5.49-12.24a62.31,62.31,0,0,1,2.07-22h-.18q-6.48,19.26-11.16,25.74Q261,202.6,254,202.6q-7.2,0-12.33-6.93a32.18,32.18,0,0,1-5.63-13.9,82.86,82.86,0,0,1-8.68,11.29q-9.65,10.41-14.86,10.4a4.33,4.33,0,0,1-1.7-.32q-4.5-1.8-5.49-12.24a62.31,62.31,0,0,1,2.07-22h-.18q-6.48,19.26-11.16,25.74-5.58,7.92-12.6,7.92-7.2,0-12.33-6.93a31.89,31.89,0,0,1-5.54-13.36,81.22,81.22,0,0,1-8.23,10.75q-8.1,8.82-13.86,8.81a6.84,6.84,0,0,1-2.7-.53q-5.22-2.16-7.29-11.52a39.4,39.4,0,0,1-.8-9.89q-9,15.7-13.51,21.95-4.14,5.94-8.73,8.28a11.62,11.62,0,0,1-5.24,1.45,7,7,0,0,1-2.77-.55q-3.6-1.44-6.12-6.57T93.27,190q-.54-9.36,3.42-22.14,2.52-8.46,7.92-24.84t5.94-18l.9-3.24a13.07,13.07,0,0,1,1.63-.1,39.14,39.14,0,0,1,6.56.73,40.41,40.41,0,0,1,10.08,3.15q4.59,2.16,3.87,4.68l-1.08,2.52q-.9,2.34-2.25,5.67t-3.06,7.92q-1.71,4.59-3.6,9.9t-3.51,10.8q-1.62,5.49-3.15,11.25a97.1,97.1,0,0,0-2.25,10.62q-2.16,13-.54,13.14.9,0,3.24-2.88,5.34-6.81,16-26.46c.28-1.75.62-3.54,1.05-5.4q1.08-4.68,8.1-28.35T154.29,98c-3.23,0-5.92,0-8.1-.11a9.47,9.47,0,0,1,.72,8.39q-1.8,4.86-8.19,6.75a20.7,20.7,0,0,1-5.91.88,19.69,19.69,0,0,1-6.6-1.15,18.82,18.82,0,0,1-8.46-6.21,8.7,8.7,0,0,1-1.44-8.91q1.8-4.5,7.92-6.48a20.17,20.17,0,0,1,6.25-1,22.86,22.86,0,0,1,6.53,1,15.38,15.38,0,0,1,6.71,3.67,7.87,7.87,0,0,1,.94-4.12,6.68,6.68,0,0,1,6-3.87h6.48q1.08-3.78,2.88-11.07t2.34-9.63h7.38a36.71,36.71,0,0,1,12.69,2.34q6.39,2.34,4.95,6.12-3.24,6.3-5.76,12.24h18q.54,0-.18,1.26Q193,95.68,177.33,97.3q-4,9.9-7.92,21.78Q156.81,157.6,153,179.92q-1.8,11.16-.18,11.34.9,0,4.5-2.88c1.89-1.47,4.44-4.88,7.65-10.2a63.81,63.81,0,0,1,2.43-22.92,88.62,88.62,0,0,1,5.85-14.13,67.88,67.88,0,0,1,7.56-11.7,75.59,75.59,0,0,1,8.55-8.91,54.42,54.42,0,0,1,8.73-6.39,40,40,0,0,1,8-3.6,17.81,17.81,0,0,1,5.25-.89,10.7,10.7,0,0,1,1.41.08,7,7,0,0,1,4.5,2.16,5.59,5.59,0,0,0,1.17,1.35q1.17,1.17,1.89,2t2.25,2.61q1.53,1.8,2.34,3t2.43,3.33a21.51,21.51,0,0,1,2.25,3.51q.63,1.35,1.89,3.51a8.76,8.76,0,0,1,1.35,3.42,22.51,22.51,0,0,0,.54,3.24,3.38,3.38,0,0,1-.27,2.88,20.81,20.81,0,0,1-.72,2.25q-.72,2.07-1.8,5.4t-2.34,7.83q-1.26,4.5-2.7,10.89t-2.52,13q-1.8,11-.9,11.16h.09q.84,0,4.23-2.71,3.74-3,9-11.5a64.92,64.92,0,0,1,2.51-21.8,88.62,88.62,0,0,1,5.85-14.13,67.88,67.88,0,0,1,7.56-11.7,75.59,75.59,0,0,1,8.55-8.91,54.42,54.42,0,0,1,8.73-6.39,40,40,0,0,1,8-3.6,17.81,17.81,0,0,1,5.25-.89,10.7,10.7,0,0,1,1.41.08,7,7,0,0,1,4.5,2.16,5.59,5.59,0,0,0,1.17,1.35q1.17,1.17,1.89,2c.47.54,1.23,1.41,2.25,2.61s1.8,2.19,2.34,3,1.35,1.89,2.43,3.33a22.23,22.23,0,0,1,2.25,3.51q.63,1.35,1.89,3.51a8.76,8.76,0,0,1,1.35,3.42,22.51,22.51,0,0,0,.54,3.24,3.42,3.42,0,0,1-.27,2.88,20.81,20.81,0,0,1-.72,2.25q-.72,2.07-1.8,5.4t-2.34,7.83q-1.26,4.5-2.7,10.89t-2.52,13q-1.8,11-.9,11.16h.09q.84,0,4.23-2.71,3.92-3.12,9.54-12.37c.29-2.41.7-5,1.26-7.79q2.7-11,18.72-65.52a124.53,124.53,0,0,1-19.89,1.71q-16.16,0-28.71-5.13-14.76-5.76-14-17.46.54-6.12,3.78-8.28a1.33,1.33,0,0,1,.8-.32.8.8,0,0,1,.46.14q26.34,16.58,59.46,16.58l2.1,0q4-11.7,8.64-22.32a176.45,176.45,0,0,1,11.34-21.42,112.15,112.15,0,0,1,14.13-18.63A63.25,63.25,0,0,1,381.81,15a43.54,43.54,0,0,1,20-4.95M355.71,86.68Q374.07,82.36,387.39,73q13.68-9.54,19.53-23.49t2.07-24q-3.78-10.08-15.3-10.08-5.22,0-9.9,4.59T374,36.37Q368.85,48.16,366.06,56t-8.91,26.37q-.9,2.88-1.44,4.32M259.77,191.62q4.32,0,7-6.12T275.61,159l7.74-26.28q.54-1.8,1.35-4.23l1.26-3.78c.29-.9.57-1.83.81-2.79a6.8,6.8,0,0,0,.27-2.25q-.09-.81-.63-1a5,5,0,0,0-2.21-.51q-4.89,0-11.38,9.33a90.69,90.69,0,0,0-12.51,27.72A154.73,154.73,0,0,0,256,174q-1.26,8.1-.36,12.87t4.14,4.77m-70.56,0q4.32,0,7-6.12T205.05,159l7.74-26.28q.54-1.8,1.35-4.23l1.26-3.78q.45-1.35.81-2.79a6.8,6.8,0,0,0,.27-2.25q-.09-.81-.63-1a5,5,0,0,0-2.21-.51q-4.89,0-11.38,9.33a90.69,90.69,0,0,0-12.51,27.72A154.73,154.73,0,0,0,185.43,174q-1.26,8.1-.36,12.87t4.14,4.77M328.71,195q11.34,0,22.68-38.16,2.52-8.1,4-14.49a102.17,102.17,0,0,0,2-11.43,19.19,19.19,0,0,0-.36-7.74q-.9-2.7-3.24-2.7-3.78,0-9.63,11.61a221.72,221.72,0,0,0-11.43,28q-3.42,12.06-4.14,15.3-2.88,14.76-2.52,17.1a2.53,2.53,0,0,0,2.7,2.52M401.79,7a46.69,46.69,0,0,0-21.34,5.28,66.29,66.29,0,0,0-18,13.38,115.19,115.19,0,0,0-14.52,19.13A180.23,180.23,0,0,0,336.4,66.57c-2.87,6.52-5.57,13.42-8,20.55-21.37,0-40.82-5.43-57.8-16.11a3.82,3.82,0,0,0-2.07-.61,4.26,4.26,0,0,0-2.53.87c-2.9,2-4.6,5.49-5,10.47v.08c-.56,9.21,4.8,16.09,15.95,20.43,8.64,3.54,18.69,5.34,29.8,5.34a122.34,122.34,0,0,0,15.69-1.06c-9.84,33.53-15.7,54.09-17.43,61.15l0,.07v.06c-.52,2.58-.93,5.05-1.22,7.37-3.7,6-6.25,9-7.87,10.48.18-1.3.42-3,.77-5.07.71-4.4,1.55-8.73,2.48-12.88s1.84-7.8,2.67-10.74,1.58-5.49,2.3-7.72,1.31-4,1.78-5.33c.34-1,.55-1.59.68-2a6.65,6.65,0,0,0,.4-4.75,20.85,20.85,0,0,1-.47-2.79,11.23,11.23,0,0,0-1.75-4.72c-.8-1.36-1.39-2.46-1.76-3.27a24,24,0,0,0-2.57-4c-1.06-1.42-1.86-2.5-2.36-3.24s-1.42-1.9-2.52-3.2-1.81-2.11-2.3-2.66-1.16-1.26-2-2.11l-.29-.3v-.08l-.77-.86a10,10,0,0,0-6.36-3.13,14.7,14.7,0,0,0-1.78-.1,21,21,0,0,0-6.14,1,43.34,43.34,0,0,0-8.62,3.87,57.23,57.23,0,0,0-9.21,6.74,78.38,78.38,0,0,0-8.89,9.26,70.56,70.56,0,0,0-7.9,12.22,91.21,91.21,0,0,0-6.05,14.6l0,.06v.05a68.91,68.91,0,0,0-2.67,21.82c-3.34,5.3-5.68,8-7.19,9.38.18-1.3.42-3,.77-5.07.71-4.4,1.55-8.73,2.48-12.88s1.84-7.8,2.67-10.74,1.58-5.49,2.3-7.72,1.31-4,1.78-5.33c.34-1,.55-1.59.68-2a6.65,6.65,0,0,0,.4-4.75,20.85,20.85,0,0,1-.47-2.79,11.23,11.23,0,0,0-1.75-4.72c-.8-1.36-1.39-2.46-1.76-3.27a24,24,0,0,0-2.57-4c-1.07-1.42-1.86-2.5-2.36-3.24s-1.42-1.9-2.52-3.2l-2.29-2.66c-.52-.57-1.17-1.26-2-2.11l-.29-.3v-.08l-.77-.86a10,10,0,0,0-6.36-3.13,14.7,14.7,0,0,0-1.78-.1,21,21,0,0,0-6.14,1,43.34,43.34,0,0,0-8.62,3.87,57.23,57.23,0,0,0-9.21,6.74,78.38,78.38,0,0,0-8.89,9.26,70.56,70.56,0,0,0-7.9,12.22,91.21,91.21,0,0,0-6.05,14.6l0,.06v.05a68,68,0,0,0-2.62,23c-3.42,5.6-5.37,7.74-6.41,8.55l-.3.24c.13-1.37.36-3.26.78-5.85,2.48-14.65,8-35,16.27-60.39,2.38-7.14,4.8-13.84,7.2-19.94,10.24-1.33,17.73-4.69,22.29-10l.18-.21.14-.25c.38-.66,1.38-2.42.37-4.16a3.17,3.17,0,0,0-2.79-1.59h-13.4c1.18-2.57,2.46-5.2,3.83-7.87l.07-.15.06-.15a6.24,6.24,0,0,0-.09-4.93c-1-2.14-3.14-3.8-6.63-5.08a40,40,0,0,0-13.72-2.52H160l-.53,2.33c-.35,1.48-1.09,4.52-2.33,9.58-.88,3.57-1.64,6.51-2.25,8.79h-4.33a9.65,9.65,0,0,0-8.57,5.5c-.08.15-.15.3-.22.46a19.65,19.65,0,0,0-3.94-1.53,26.05,26.05,0,0,0-7.35-1.1,23,23,0,0,0-7.17,1.14c-5,1.6-8.25,4.37-9.79,8.22a11.74,11.74,0,0,0,1.85,11.85,21.89,21.89,0,0,0,9.78,7.19h.06a22.77,22.77,0,0,0,7.6,1.32,24.12,24.12,0,0,0,6.76-1,16.2,16.2,0,0,0,8-4.85c-2.33,8.23-4.95,17.27-7.85,27-4.74,16-7.4,25.32-8.14,28.52-.39,1.65-.72,3.32-1,5.09-5.79,10.59-10.39,18.34-13.72,23.13.18-1.44.44-3.22.81-5.45v0a94.89,94.89,0,0,1,2.18-10.29c1-3.73,2-7.49,3.13-11.17s2.22-7.17,3.46-10.64c1.32-3.71,2.49-6.94,3.58-9.86s2.13-5.62,3-7.84,1.61-4,2.25-5.67l1.06-2.47.07-.17.06-.19c.64-2.27.22-5.53-5.48-8.21a43.12,43.12,0,0,0-10.83-3.39,41.28,41.28,0,0,0-7.09-.78,15.63,15.63,0,0,0-2,.13l-2,.26-.53,1.91-.88,3.16q-.63,1.89-5.92,17.94c-3.6,10.92-6.27,19.3-8,24.92-2.72,8.8-3.91,16.61-3.54,23.17.39,6.71,1.49,11.82,3.37,15.64,2,4.08,4.58,6.78,7.67,8a10.13,10.13,0,0,0,3.91.77,14.62,14.62,0,0,0,6.6-1.78c3.49-1.77,6.79-4.87,9.82-9.21,2.16-3,5.11-7.63,8.79-13.83,0,.23.09.46.14.68,1.59,7.22,4.65,11.81,9.07,13.64a9.87,9.87,0,0,0,3.85.76c4.76,0,10-3.19,16-9.76a63.43,63.43,0,0,0,4.82-5.84,32.49,32.49,0,0,0,4.35,8.19c4,5.4,9,8.14,14.74,8.14s10.75-3.09,15.05-9.19a44.42,44.42,0,0,0,3.73-6.48c0,.42.06.84.1,1.25.78,8.26,3.19,13.08,7.37,14.75a7.36,7.36,0,0,0,2.81.53c4.46,0,9.88-3.61,17.06-11.36a68.71,68.71,0,0,0,5.2-6.26,32.21,32.21,0,0,0,4.5,8.62c4,5.4,9,8.14,14.74,8.14s10.75-3.09,15.05-9.19a44.42,44.42,0,0,0,3.73-6.48c0,.42.06.84.1,1.25.78,8.26,3.19,13.08,7.36,14.75a7.45,7.45,0,0,0,2.82.53c4.46,0,9.88-3.61,17.06-11.36,1.2-1.26,2.46-2.73,3.76-4.39.14.57.28,1.11.45,1.63,1.91,6.08,5.23,10,9.87,11.65a19.14,19.14,0,0,0,6.5,1,40,40,0,0,0,14.41-3.25c8.21-3.26,16.42-8.93,24.41-16.86a67.6,67.6,0,0,0,17-27.12v0l0,0a70.12,70.12,0,0,0,3.08-23.8c-.45-7.53-2.4-13.93-5.81-19-3.69-5.55-8.53-8.36-14.37-8.36a12.78,12.78,0,0,0-8,3.24L355,99A179.68,179.68,0,0,0,394.06,80l0,0h0A92.76,92.76,0,0,0,416.8,58.22c9.22-12.63,13-24.06,11.34-34C426.8,16.38,421.13,7,401.79,7ZM360.3,82.38C364.2,70.56,367.09,62,368.88,57s4.47-11.66,7.85-19.43c3.25-7.47,6.33-12.67,9.16-15.44,2.56-2.51,5.11-3.73,7.8-3.73,6.44,0,10.41,2.58,12.49,8.13,2.23,5.95,1.55,13.29-2,21.82-3.66,8.72-9.88,16.19-18.48,22.19A85.16,85.16,0,0,1,360.3,82.38ZM259.77,188.62c-.66,0-1-1.46-1.19-2.33-.54-2.82-.41-6.81.37-11.85a153.4,153.4,0,0,1,4.24-18.35,88.24,88.24,0,0,1,12.09-26.84c4.56-6.55,7.34-7.83,8.58-8h0c-.22.86-.47,1.73-.75,2.57l-.65,2-.61,1.81c-.54,1.62-1,3.07-1.38,4.32l-7.74,26.29c-4,13.37-7,22.16-8.69,26.1-1.26,2.87-2.7,4.33-4.27,4.33Zm-70.56,0c-.66,0-1-1.46-1.19-2.33-.54-2.82-.41-6.81.37-11.85a153.4,153.4,0,0,1,4.24-18.35,88.24,88.24,0,0,1,12.09-26.84c4.56-6.55,7.34-7.83,8.58-8h0c-.22.86-.47,1.73-.75,2.57l-.66,2-.6,1.79c-.54,1.62-1,3.07-1.38,4.32l-7.74,26.29c-4,13.37-6.95,22.16-8.69,26.1-1.26,2.87-2.7,4.33-4.27,4.33ZM335.53,161a218.3,218.3,0,0,1,11.25-27.53c4.5-8.94,6.73-9.88,7-10h0a2,2,0,0,1,.31.65c.32,1,.61,2.84.23,6.47a100.91,100.91,0,0,1-1.93,11.09c-.94,4.17-2.25,9-3.9,14.26-9.37,31.55-16.62,35.81-19.55,36,0-.66.07-3.55,2.49-16,.47-2.1,1.84-7.15,4.07-15Z"/><path class="cls-3" d="M420.77,205a5.93,5.93,0,0,1-2.28-.43c-3.58-1.43-5.69-5.85-6.41-13.49a56,56,0,0,1-.18-8,63.42,63.42,0,0,1-6.38,12.53c-4,5.66-8.64,8.54-13.82,8.54s-9.83-2.54-13.53-7.54c-3.57-4.82-5.73-10.95-6.41-18.21a65.77,65.77,0,0,1,2.48-23.49,90.68,90.68,0,0,1,6-14.42,70.31,70.31,0,0,1,7.73-12,78.65,78.65,0,0,1,8.72-9.09,56.81,56.81,0,0,1,9-6.56,41.62,41.62,0,0,1,8.31-3.73,19.43,19.43,0,0,1,5.7-1,13.73,13.73,0,0,1,1.59.09,8.48,8.48,0,0,1,5.43,2.65l.38.42v.11c.14.15.36.39.73.76.83.83,1.47,1.5,2,2s1.25,1.43,2.28,2.64,1.86,2.27,2.43,3.09,1.31,1.83,2.39,3.28a22.43,22.43,0,0,1,2.41,3.77q.6,1.29,1.83,3.39a10.16,10.16,0,0,1,1.55,4.07,20.76,20.76,0,0,0,.51,3,5.12,5.12,0,0,1-.33,3.82c-.11.36-.31,1-.71,2.13-.48,1.38-1.07,3.17-1.79,5.37s-1.51,4.86-2.32,7.77-1.73,6.61-2.68,10.82-1.79,8.54-2.5,13c-.78,4.73-1.07,7.29-1.16,8.68.52-.36,1.21-.88,2.16-1.63,3.08-2.45,7.11-8.08,12-16.75a66.93,66.93,0,0,1,3-15.82,122.09,122.09,0,0,1,5.93-15A116.42,116.42,0,0,1,462.27,126a131.78,131.78,0,0,1,8.55-11.75,77.58,77.58,0,0,1,8.82-9.27,84.59,84.59,0,0,1,8.16-6.32c2.83-1.91,5.28-2.91,7.49-3l.71,0a7.77,7.77,0,0,1,5,1.61l.09.07c.18.15,1,.75,4.44,3.21a36.15,36.15,0,0,1,7.41,6.86,9.8,9.8,0,0,1,2.27,8.24c-1,5.81-6.06,14.08-15.44,25.24a178.58,178.58,0,0,1-29.13,27.89c-2.7,13.7-1.44,19.18.11,21.37a3.78,3.78,0,0,0,2.71,1.66,7.56,7.56,0,0,0,1.56.15c3.83,0,9.11-2.38,15.71-7.08a61.15,61.15,0,0,0,18.63-21.62c2.63-4.91,3.8-5.84,5-5.84.74,0,2,.37,2.1,2.87,0,2.16-1,4.82-2.9,8.2a81.64,81.64,0,0,1-22.08,24.93c-9.4,7.13-18,10.74-25.66,10.74-8.61,0-14.66-5.29-18-15.71a46.1,46.1,0,0,1-1.62-6.87,87.34,87.34,0,0,1-9.55,12.58C429.94,201.4,424.72,205,420.77,205Zm1.13-85.25c-1.88,0-5.16,1.5-10.15,8.69a89.67,89.67,0,0,0-12.3,27.26,153.18,153.18,0,0,0-4.28,18.55c-.81,5.21-.94,9.37-.37,12.36.67,3.55,2.12,3.55,2.66,3.55,2.25,0,4.1-1.71,5.65-5.23,1.77-4,4.71-12.84,8.76-26.28l7.74-26.27c.36-1.22.82-2.65,1.36-4.28l1.26-3.79c.29-.86.55-1.77.78-2.68a5.94,5.94,0,0,0,.24-1.61A3.5,3.5,0,0,0,421.9,119.71Zm75.52-13.8c-.59,0-1.89.39-4,3a56.56,56.56,0,0,0-7.08,12.44c-2.37,5.39-4.66,11.12-6.81,17s-4,11.71-5.54,17.26l0,.1,0,.09c0,.08-.07.18-.11.3a110.76,110.76,0,0,0,12.56-17.66c5.08-8.75,8.63-16.45,10.57-22.9,2.58-8.62,1-9.58,1-9.59A1.4,1.4,0,0,0,497.42,105.91Z"/><path class="cls-1" d="M496,97.1a6.3,6.3,0,0,1,4.06,1.28q.18.18,4.59,3.33a34.55,34.55,0,0,1,7.11,6.57,8.36,8.36,0,0,1,2,7q-1.44,8.28-15.12,24.57a175.88,175.88,0,0,1-29.34,28q-4.86,24.12,4,25.38a9.28,9.28,0,0,0,1.78.16q6.24,0,16.58-7.36a62.28,62.28,0,0,0,19.08-22.14q2.7-5,3.72-5,.54,0,.6,1.44,0,2.7-2.7,7.38a79.87,79.87,0,0,1-21.69,24.48q-13.77,10.44-24.75,10.44-11.88,0-16.56-14.67a45.44,45.44,0,0,1-2-10.85,96.74,96.74,0,0,1-11.66,16q-9.63,10.41-14.85,10.4a4.38,4.38,0,0,1-1.71-.32q-4.5-1.8-5.49-12.24a62.31,62.31,0,0,1,2.07-22h-.18Q409,188.2,404.3,194.68q-5.58,7.92-12.6,7.92-7.2,0-12.33-6.93t-6.12-17.46a64.2,64.2,0,0,1,2.43-23,88.62,88.62,0,0,1,5.85-14.13,67.88,67.88,0,0,1,7.56-11.7,75.59,75.59,0,0,1,8.55-8.91,54.42,54.42,0,0,1,8.73-6.39,40,40,0,0,1,8-3.6,17.82,17.82,0,0,1,5.26-.89,10.55,10.55,0,0,1,1.4.08,7,7,0,0,1,4.5,2.16,5.59,5.59,0,0,0,1.17,1.35q1.17,1.17,1.89,2t2.25,2.61q1.53,1.8,2.34,3t2.43,3.33a21.51,21.51,0,0,1,2.25,3.51q.63,1.35,1.89,3.51a8.76,8.76,0,0,1,1.35,3.42,22.51,22.51,0,0,0,.54,3.24,3.38,3.38,0,0,1-.27,2.88,20.81,20.81,0,0,1-.72,2.25q-.72,2.07-1.8,5.4t-2.34,7.83q-1.26,4.5-2.7,10.89t-2.52,13q-1.8,11-.9,11.16h.1c.56,0,2-.9,4.22-2.71q4.93-3.92,12.53-17.49a65.43,65.43,0,0,1,2.95-15.81,120.77,120.77,0,0,1,5.85-14.85,115.13,115.13,0,0,1,7.47-13.59A127.88,127.88,0,0,1,472,115.21a75.35,75.35,0,0,1,8.64-9.09,83.19,83.19,0,0,1,8-6.21,14.3,14.3,0,0,1,6.75-2.79l.62,0m-25.28,64.46a104.64,104.64,0,0,0,16.92-22.32q7.74-13.32,10.71-23.22t.27-11.34a2.8,2.8,0,0,0-1.2-.27q-2.3,0-5.19,3.6a57.73,57.73,0,0,0-7.29,12.78q-3.6,8.19-6.84,17.1t-5.58,17.37a56.76,56.76,0,0,0-1.8,6.3m-73.26,30.06q4.32,0,7-6.12T413.3,159L421,132.76q.54-1.8,1.35-4.23l1.26-3.78q.45-1.35.81-2.79a6.8,6.8,0,0,0,.27-2.25q-.09-.81-.63-1a5,5,0,0,0-2.2-.51q-4.9,0-11.39,9.33A90.69,90.69,0,0,0,398,155.26,154.73,154.73,0,0,0,393.68,174q-1.26,8.1-.36,12.87t4.14,4.77M496,94.1h0l-.8,0c-2.49.15-5.18,1.23-8.24,3.29a84.9,84.9,0,0,0-8.3,6.44,78.27,78.27,0,0,0-9,9.45A132.76,132.76,0,0,0,461,125.19a118.83,118.83,0,0,0-7.67,13.94,126.18,126.18,0,0,0-6,15.22,69,69,0,0,0-3,15.85c-5.27,9.33-8.71,13.56-10.8,15.46.17-1.3.42-3,.77-5.07.71-4.4,1.54-8.73,2.48-12.88s1.84-7.8,2.66-10.74,1.59-5.49,2.31-7.72,1.31-4,1.78-5.33c.33-1,.54-1.59.67-2a6.59,6.59,0,0,0,.41-4.75,19.34,19.34,0,0,1-.47-2.79,11.37,11.37,0,0,0-1.75-4.72c-.8-1.36-1.39-2.46-1.77-3.27a24,24,0,0,0-2.57-4c-1.06-1.42-1.85-2.5-2.36-3.24s-1.42-1.9-2.52-3.2-1.8-2.11-2.29-2.66-1.16-1.26-2-2.11l-.3-.3v-.08l-.77-.86a10,10,0,0,0-6.35-3.13,14.81,14.81,0,0,0-1.78-.1,21,21,0,0,0-6.14,1,43.34,43.34,0,0,0-8.62,3.87,57.72,57.72,0,0,0-9.22,6.74,78.38,78.38,0,0,0-8.89,9.26,71.15,71.15,0,0,0-7.9,12.22,92.14,92.14,0,0,0-6.05,14.6v.06l0,.05a67.38,67.38,0,0,0-2.52,24c.7,7.54,3,13.92,6.69,19,4,5.4,9,8.14,14.74,8.14s10.76-3.09,15.06-9.19a44.48,44.48,0,0,0,3.72-6.48c0,.42.07.84.11,1.25.78,8.26,3.19,13.08,7.36,14.75a7.41,7.41,0,0,0,2.82.53c4.45,0,9.87-3.61,17.06-11.36a79.58,79.58,0,0,0,7.66-9.72c.27,1.17.59,2.33,1,3.46,4.41,13.85,13,16.76,19.41,16.76,8,0,16.9-3.72,26.57-11a83.22,83.22,0,0,0,22.49-25.4c2.07-3.59,3.08-6.49,3.08-8.85v-.13c-.18-4.1-3-4.31-3.6-4.31-2.38,0-4,2.23-6.36,6.62a59.65,59.65,0,0,1-18.18,21.12c-7.89,5.62-12.43,6.8-14.84,6.8a6.47,6.47,0,0,1-1.2-.1l-.08,0h-.07a2.31,2.31,0,0,1-1.7-1.05c-1.11-1.57-2.55-6.21,0-19.65a180.78,180.78,0,0,0,28.91-27.77c9.54-11.36,14.7-19.84,15.77-26a11.25,11.25,0,0,0-2.57-9.43,38.11,38.11,0,0,0-7.72-7.15c-3.15-2.25-4-2.91-4.31-3.11h0l-.14-.11A9.24,9.24,0,0,0,496,94.1Zm-18.6,55.24q1.59-5.13,3.52-10.42c2.14-5.87,4.41-11.56,6.77-16.92a55,55,0,0,1,6.88-12.11,9.89,9.89,0,0,1,2.33-2.26c.05,1-.1,3.14-1.42,7.53-1.9,6.33-5.41,13.93-10.43,22.57a117.27,117.27,0,0,1-7.65,11.61Zm-79.94,39.28c-.68,0-1.06-1.63-1.19-2.33-.53-2.82-.41-6.81.38-11.85a151.47,151.47,0,0,1,4.24-18.35A88,88,0,0,1,413,129.25c4.56-6.55,7.34-7.83,8.57-8h0c-.21.86-.47,1.73-.74,2.57l-.67,2-.59,1.79c-.54,1.62-1,3.07-1.38,4.32l-7.74,26.29c-4,13.37-6.95,22.16-8.69,26.1-1.27,2.87-2.71,4.33-4.28,4.33Z"/><path d="M177.33,97.3a38.93,38.93,0,0,1-4.45,0,14.29,14.29,0,0,0,3.88,1.44Z"/><path class="cls-1" d="M325.7,103.06A45.44,45.44,0,0,0,337,99.44a24.15,24.15,0,0,1-11.89,6.38Z"/><path class="cls-4" d="M36.64,149.29c-.13,0-.11-.66,0-1.78.07-.56.17-1.24.29-2s.34-1.64.54-2.59c.81-3.79,2.21-8.79,3.68-13.84,3-10.09,6.47-20.35,6.87-21.56S51.92,96,55.51,86.12s7.28-19.41,7.78-19.23-2.7,9.87-6,19.84S50.48,107,50.08,108.18,46.2,119.63,43,129.61c-1.59,5-3.18,9.91-4.27,13.6-.28.92-.54,1.76-.77,2.5s-.4,1.4-.57,1.94C37,148.72,36.77,149.32,36.64,149.29Z"/><path class="cls-4" d="M125.87,238.15c0,.26-3.09.15-7.59-.91A60.4,60.4,0,0,1,102.41,231,50.56,50.56,0,0,1,88.74,219.7a47.53,47.53,0,0,1-5.35-7.82c-.16-.35-.69-1.33-1.39-2.81-.32-.76-.7-1.64-1.11-2.62l-1.17-3.29c-1.58-4.67-3.62-10.64-5.75-16.47S69.64,175.16,67.85,171c-.89-2.1-1.67-3.81-2.23-5s-.91-1.84-.81-1.92.66.46,1.41,1.58A47.46,47.46,0,0,1,69,170.46c2.07,4.11,4.49,9.77,6.75,15.58s4.37,11.77,6,16.46a51.79,51.79,0,0,0,3.56,8.37,45.89,45.89,0,0,0,5.08,7.49,50.3,50.3,0,0,0,13,11,68.06,68.06,0,0,0,15.26,6.68C122.93,237.39,125.9,237.89,125.87,238.15Z"/><path class="cls-4" d="M111.29,197.62c-.24,0-.65-2-.56-5.09a64,64,0,0,1,1.52-11.27,171.2,171.2,0,0,1,4.8-17.26c.3-1,3-9.09,6.22-16.78s6.62-15,7.11-14.75-2.52,7.66-5.39,15.43-5.62,15.81-5.92,16.77-3,9-5,17a95.84,95.84,0,0,0-2.1,11C111.56,195.6,111.57,197.6,111.29,197.62Z"/><path class="cls-4" d="M137,111.85c-.24-.49,2-1.72,3.7-3.39a9.4,9.4,0,0,0,1.95-2.59,6.16,6.16,0,0,0,.52-1.55,6.27,6.27,0,0,0,.1-1.63,9.24,9.24,0,0,0-.83-3.14c-1-2.22-2.59-4.09-2.24-4.46s2.5,1.19,3.89,3.63a9.61,9.61,0,0,1,1.27,3.79,7.51,7.51,0,0,1-.1,2.22,7.32,7.32,0,0,1-.74,2.09,9.46,9.46,0,0,1-2.61,3C139.71,111.56,137.2,112.3,137,111.85Z"/><path class="cls-4" d="M185.56,94.26c0-.14.59-.31,1.47-.65a16.54,16.54,0,0,0,3.1-1.58A29.38,29.38,0,0,0,193,89.87l.86-.73h0l-.19,0-.79,0a26.82,26.82,0,0,1-3.36-.12c-2.16-.19-4-.42-4-.64s1.86-.25,4-.21c1.08,0,2.23,0,3.25,0l.75-.07,1.19-.13,2.37-.29-1.31,1.16-.91.8-.39.34-.26.21-.56.47a26.7,26.7,0,0,1-3.1,2.15,12.35,12.35,0,0,1-3.4,1.36C186.23,94.4,185.57,94.38,185.56,94.26Z"/><path class="cls-4" d="M148.89,188.42c-.13,0-.21-.65-.24-1.8a30.5,30.5,0,0,1,.15-4.76c.1-1,.2-2.05.31-3.18s.35-2.31.55-3.53c.35-2.47.9-5.07,1.44-7.69,2.19-10.49,5.31-21.06,5.63-22.31s3.39-11.85,6.79-22,7-19.88,7.48-19.7-2.62,10-5.71,20.26-6.16,20.77-6.51,22-3.44,11.78-5.88,22.13c-.59,2.59-1.22,5.16-1.67,7.57-.25,1.2-.49,2.37-.71,3.47s-.35,2.14-.51,3.1c-.39,1.92-.5,3.52-.67,4.65S149,188.42,148.89,188.42Z"/><path class="cls-4" d="M182.72,186.15c-.47,0-.84-7.86.15-15.93.14-1,.28-2,.42-3s.26-2,.48-2.94c.39-1.9.74-3.71,1.1-5.29.86-3.12,1.43-5.39,1.62-5.84.08-.24.31-.91.64-1.91s.73-2.34,1.36-3.83,1.23-3.24,2.08-5l1.26-2.71c.47-.9.94-1.8,1.42-2.7a67.87,67.87,0,0,1,6-9.3c1.84-2.35,3.32-3.7,3.52-3.52s-1,1.74-2.53,4.23a108,108,0,0,0-5.34,9.45c-.44.89-.88,1.79-1.31,2.68l-1.17,2.68c-.8,1.73-1.38,3.45-2,4.92s-1,2.79-1.31,3.76l-.61,1.87c-.19.44-.75,2.67-1.62,5.72-.38,1.53-.74,3.3-1.17,5.16-.23.93-.38,1.89-.54,2.87s-.33,2-.49,2.95C183.47,178.36,183.3,186.14,182.72,186.15Z"/><path class="cls-4" d="M219.9,187.09c-.51,0-.35-5.57.3-11.26a119.66,119.66,0,0,1,2-12.15,100.43,100.43,0,0,1,3.43-11.86c1.91-5.41,4.38-10.42,4.87-10.19s-1.48,5.35-3.11,10.77-3,11.07-3.11,11.74-1.39,6.35-2.27,11.94S220.43,187.14,219.9,187.09Z"/><path class="cls-4" d="M254,187.1c-.13,0-.27-.49-.42-1.37a29.15,29.15,0,0,1-.42-3.68,70.6,70.6,0,0,1,.2-11.39,85.85,85.85,0,0,1,2-11.63c.79-3.24,1.51-5.55,1.66-6s.87-2.8,2.08-5.91a91.72,91.72,0,0,1,5-10.7,71.8,71.8,0,0,1,6.16-9.6c1.88-2.44,3.45-3.85,3.7-3.59a48.59,48.59,0,0,1-2.71,4.29c-1.61,2.56-3.67,6.06-5.51,9.75a110.55,110.55,0,0,0-4.63,10.6c-1.16,3.06-1.84,5.33-2,5.8s-.86,2.73-1.67,5.9a97.32,97.32,0,0,0-2.15,11.33C254,179,254.52,187.05,254,187.1Z"/><path class="cls-4" d="M291,189.55c-.54,0-.84-6-.25-12.06.28-3.06.73-6.15,1.19-8.56s.91-4.13,1-4.49c.17-.74,1.82-6.82,3.84-12.6s4.29-11.25,4.79-11.06-1.32,5.8-3,11.63S295.19,164.27,295,165c-.09.35-.53,2-1,4.37s-1,5.36-1.4,8.35C291.76,183.67,291.53,189.54,291,189.55Z"/><path class="cls-4" d="M277.79,97.33c-.06.12-.57,0-1.43-.33a25.15,25.15,0,0,1-3.48-1.61,13.18,13.18,0,0,1-4.29-3.65,12.06,12.06,0,0,1-2.22-6.25,23.3,23.3,0,0,1,.63-6.57l.47-1.7.4-1.4c.17-.37.14-1.25.65-.67l3.24,2.14,1,.66,1,.55,1.63.93c.93.56,1.6.86,1.83,1,.46.22,2.6,1.35,5.7,2.63a96.3,96.3,0,0,0,11.24,3.77c4.09,1.1,8.19,1.9,11.26,2.42s5.12.81,5.11,1.07-2.1.39-5.26.14a76.4,76.4,0,0,1-11.56-1.84A85.17,85.17,0,0,1,282.1,85c-3.2-1.28-5.41-2.45-5.89-2.68-.23-.12-.92-.43-1.88-1l-1.68-1-1-.58-1-.69-1.11-.75-.14-.1h0l0,0s0,0,0,0L269,79.4a22.2,22.2,0,0,0-.73,6,10.74,10.74,0,0,0,1.68,5.45,13.2,13.2,0,0,0,3.63,3.54c1.26.87,2.38,1.52,3.14,2S277.85,97.21,277.79,97.33Z"/><path class="cls-4" d="M324.26,189.74c-.26,0-.28-1.87-.16-4.69a82.41,82.41,0,0,1,1.39-10.34,131,131,0,0,1,4.25-15.93,148.76,148.76,0,0,1,6.1-15.32c3.19-7,7-13.36,7.51-13.08s-2.91,6.82-5.82,13.83-5.51,14.37-5.77,15.25-2.8,8.25-4.46,15.63c-.87,3.68-1.51,7.35-2,10.09S324.52,189.75,324.26,189.74Z"/><path class="cls-4" d="M390.59,187.1c-.26,0-.46-2-.61-5.14a44.17,44.17,0,0,1,.07-5.34c0-1,.09-2,.15-3s.25-2.08.38-3.13a94.63,94.63,0,0,1,4-17.8,106.76,106.76,0,0,1,7.18-16.78,86.9,86.9,0,0,1,6.12-9.78c1.85-2.51,3.29-4,3.5-3.84s-.91,1.87-2.48,4.52-3.62,6.22-5.49,10a124.18,124.18,0,0,0-6.8,16.59,108.39,108.39,0,0,0-4.21,17.39c-.16,1-.33,2.06-.49,3.06s-.19,2-.28,3c-.19,1.92-.43,3.71-.44,5.25C391.05,185,390.86,187.08,390.59,187.1Z"/><path class="cls-4" d="M428,188.42c-.26,0-.38-1.46-.41-3.66,0-1.1.09-2.38.17-3.77s.28-2.85.45-4.34c.73-5.93,2.19-11.91,2.33-12.62s1.57-6.69,3.41-12.37,4-11.06,4.45-10.88-1.17,5.68-2.68,11.4-2.94,11.64-3.11,12.34-1.58,6.6-2.57,12.41c-.23,1.45-.5,2.89-.7,4.24s-.38,2.6-.54,3.68C428.55,187,428.27,188.42,428,188.42Z"/><path class="cls-4" d="M464.29,187.09c-.26,0-.35-2.14-.33-5.39,0-1.64.15-3.53.31-5.57.09-1,.18-2.08.27-3.16s.31-2.16.47-3.26a131.26,131.26,0,0,1,4.13-18.59,146.06,146.06,0,0,1,6.65-17.86,116.34,116.34,0,0,1,5.53-10.7c1.67-2.79,3-4.51,3.2-4.37s-.74,2-2.13,5-3.21,6.82-4.9,10.86a183,183,0,0,0-6.31,17.73A160.78,160.78,0,0,0,466.83,170c-.19,1.08-.38,2.15-.57,3.2s-.27,2.1-.41,3.1c-.26,2-.57,3.87-.68,5.47C464.86,185,464.56,187.1,464.29,187.09Z"/><path class="cls-4" d="M505.12,128.16c-.21-.15.05-.9.56-1.93.25-.51.57-1.1.93-1.72s.63-1.34,1-2c.17-.35.36-.68.51-1l.42-1a19.77,19.77,0,0,0,.71-1.87,20.11,20.11,0,0,0,.59-2.13l.11-.71a6.77,6.77,0,0,0,.17-1.44l0-.9a6.79,6.79,0,0,0-.1-1,8.35,8.35,0,0,0-.49-2,8.64,8.64,0,0,0-2.21-3.13c-.79-.75-1.4-1.17-1.31-1.41s.93-.18,2,.42a7.76,7.76,0,0,1,3.18,3.36,8.84,8.84,0,0,1,.8,2.44,8.67,8.67,0,0,1,.16,1.19v1.09A7.57,7.57,0,0,1,512,116l-.13.83a17.5,17.5,0,0,1-.69,2.37,17.8,17.8,0,0,1-.85,2l-.51,1.07c-.19.36-.41.7-.62,1-.42.69-.85,1.37-1.25,2s-.89,1.12-1.28,1.57C505.92,127.79,505.33,128.31,505.12,128.16Z"/></g></g></svg>